# xmcd
#
# Track frame offsets:
#	150
#	13892
#	27617
#	37670
#	51277
#	64989
#	78385
#	91372
#	105547
#
# Disc length: 1570 seconds
#
# Revision: 0
# Processed by: cddbd v1.5.2PL0 Copyright (c) Steve Scherf et al.
# Submitted via: audiograbber 1.83.01
#
DISCID=6f062009
DTITLE=Various Artist - Grand Prix der Volksmusik
DYEAR=2004
DGENRE=Volksmusik
TTITLE0=Die Ladiner - Beuge dich vor grauem Haar
TTITLE1=Orig.Südtiroler Spitzbuam - Ich schenk mein Herz der Heimat
TTITLE2=Ramba Zamba - Grubentaler
TTITLE3=Madre di dio - Belsy
TTITLE4=Nur eine Hand voll Freiheit - Frei
TTITLE5=Lange Rede, kurzer Sinn - Florian and Florian
TTITLE6=Ich bin noch viel zu jung - Sarah Jane
TTITLE7=Mein kleiner Blumenstrauß - Christian Gebhardt
TTITLE8=Wo die Wälder rauschen - Bergwind
EXTD=<http://www.hit-radio24.de> \n
EXTT0=
EXTT1=
EXTT2=
EXTT3=
EXTT4=
EXTT5=
EXTT6=
EXTT7=
EXTT8=
PLAYORDER=
